<svg width="140" height="330" viewBox="0 0 140 330" fill="none" xmlns="http://www.w3.org/2000/svg">
<path d="M16.9494 0H68.7223V71.804H14.1759C6.04016 71.804 0 63.1752 0 56.3954V13.8677C0 6.77978 8.01246 0 16.9494 0Z" fill="black"/>
<path d="M70.8795 12.9433C70.8795 8.32075 75.8103 0.616462 84.4391 0.616462H126.35C133.747 0.616455 139.294 7.08807 139.294 12.9433V57.32C139.294 65.0243 132.206 72.1123 126.35 72.1123H86.5963C79.2002 72.1123 70.8795 64.7162 70.8795 57.32V12.9433Z" fill="black"/>
<path d="M54.8545 86.2878H0V157.784H54.8545V86.2878Z" fill="black"/>
<path d="M103.546 86.9043H57.3199V158.092H125.734V134.363H103.546V86.9043Z" fill="black"/>
<path d="M0 188.909V243.764H68.1059V188.909C68.1059 176.891 61.018 172.576 54.2382 172.576H15.4086C8.32063 172.576 0 179.356 0 188.909Z" fill="black"/>
<path d="M122.344 172.576H70.2631V244.072C85.158 244.072 113.777 243.764 118.954 243.764C130.048 243.764 134.803 235.289 135.904 231.437C138.369 222.808 137.136 214.795 136.52 211.097C135.904 207.399 130.357 196.614 121.42 196.614C130.357 196.614 132.514 187.984 132.514 184.903C132.514 176.89 127.583 172.576 122.344 172.576Z" fill="black"/>
<path d="M19.1066 258.248H67.4896V281.361H51.4647C54.5464 281.361 69.0304 287.216 69.0304 305.398C69.0304 316.492 63.1752 329.744 53.0055 329.744H0V305.398H15.4086C8.62881 305.398 0 299.543 0 281.977C0 264.411 9.55332 258.248 19.1066 258.248Z" fill="black"/>
<path d="M76.1944 261.12H88.1944V262.8H76.1944V261.12ZM90.1163 261.12H102.116V262.8H90.1163V261.12ZM104.038 261.12H116.038V262.8H104.038V261.12Z" fill="black"/>
</svg>
