<svg width="226" height="535" viewBox="0 0 226 535" fill="none" xmlns="http://www.w3.org/2000/svg">
<rect x="118" y="510" width="25" height="25" fill="black"/>
<path d="M27.5 0H111.5V116.5H23C9.8 116.5 0 102.5 0 91.5V22.5C0 11 13 0 27.5 0Z" fill="black"/>
<path d="M115 21C115 13.5 123 1.00001 137 1.00001H205C217 1 226 11.5 226 21V93C226 105.5 214.5 117 205 117H140.5C128.5 117 115 105 115 93V21Z" fill="black"/>
<path d="M89 140H0V256H89V140Z" fill="black"/>
<path d="M168 141H93V256.5H204V218H168V141Z" fill="black"/>
<path d="M0 306.5V395.5H110.5V306.5C110.5 287 99 280 88 280H25C13.5 280 0 291 0 306.5Z" fill="black"/>
<path d="M198.5 280H114V396C138.167 396 184.6 395.5 193 395.5C211 395.5 218.714 381.749 220.5 375.5C224.5 361.5 222.5 348.5 221.5 342.5C220.5 336.5 211.5 319 197 319C211.5 319 215 305 215 300C215 286.999 207 280 198.5 280Z" fill="black"/>
<path d="M31 419H109.5V456.5H83.5C88.5 456.5 112 466 112 495.5C112 513.5 102.5 535 86 535H0V495.5H25C14 495.5 0 486 0 457.5C0 429 15.5 419 31 419Z" fill="black"/>
</svg>
