<svg width="282" height="152" viewBox="0 0 282 152" fill="none" xmlns="http://www.w3.org/2000/svg">
<path d="M16.9494 0H68.7223V71.804H14.1759C6.04016 71.804 0 63.1752 0 56.3954V13.8677C0 6.77978 8.01246 0 16.9494 0Z" fill="black"/>
<path d="M70.8795 12.9433C70.8795 8.32075 75.8103 0.616462 84.4391 0.616462H126.35C133.747 0.616455 139.294 7.08807 139.294 12.9433V57.32C139.294 65.0243 132.206 72.1123 126.35 72.1123H86.5963C79.2002 72.1123 70.8795 64.7162 70.8795 57.32V12.9433Z" fill="black"/>
<path d="M196.855 0H142V71.4958H196.855V0Z" fill="black"/>
<path d="M46.2257 80H0V151.188H68.4141V127.458H46.2257V80Z" fill="black"/>
<path d="M71 96.3331V151.188H139.106V96.3331C139.106 84.3144 132.018 80 125.238 80H86.4086C79.3206 80 71 86.7798 71 96.3331Z" fill="black"/>
<path d="M194.081 80H142V151.496C156.895 151.496 185.514 151.187 190.691 151.187C201.785 151.187 206.54 142.713 207.641 138.86C210.106 130.232 208.873 122.219 208.257 118.521C207.641 114.823 202.093 104.037 193.156 104.037C202.093 104.037 204.251 95.4083 204.251 92.3266C204.251 84.3138 199.32 80 194.081 80Z" fill="black"/>
<path d="M231.107 78H279.49V101.113H263.465C266.546 101.113 281.03 106.968 281.03 125.15C281.03 136.244 275.175 149.496 265.006 149.496H212V125.15H227.409C220.629 125.15 212 119.295 212 101.729C212 84.1634 221.553 78 231.107 78Z" fill="black"/>
<rect x="211" y="51" width="16.0233" height="16.0233" fill="black"/>
</svg>
