<svg width="865" height="117" viewBox="0 0 865 117" fill="none" xmlns="http://www.w3.org/2000/svg">
<path d="M28 0H112V116.5H23.5C10.3 116.5 0.5 102.5 0.5 91.5V22.5C0.5 11 13.5 0 28 0Z" fill="black"/>
<path d="M122 20C122 12.5 130 1.19103e-05 144 1.19103e-05H212C224 0 233 10.5 233 20V92C233 104.5 221.5 116 212 116H147.5C135.5 116 122 104 122 92V20Z" fill="black"/>
<path d="M332 0H243V116H332V0Z" fill="black"/>
<path d="M416.5 0H341.5V115.5H452.5V77H416.5V0Z" fill="black"/>
<path d="M463.5 26.5V115.5H574V26.5C574 7 562.5 0 551.5 0H488.5C477 0 463.5 11 463.5 26.5Z" fill="black"/>
<path d="M671.5 0.000488281H587V116C611.167 116 657.6 115.5 666 115.5C684 115.5 691.714 101.75 693.5 95.5C697.5 81.5 695.5 68.5 694.5 62.5C693.5 56.5 684.5 39.0005 670 39.0005C684.5 39.0005 688 25 688 20C688 6.99951 680 0.000421664 671.5 0.000488281Z" fill="black"/>
<path d="M737 0H815.5V37.5H789.5C794.5 37.5 818 47 818 76.5C818 94.5 808.5 116 792 116H706V76.5H731C720 76.5 706 67 706 38.5C706 10 721.5 0 737 0Z" fill="black"/>
<rect x="840" y="92" width="25" height="25" fill="black"/>
</svg>
