<svg width="139" height="123" viewBox="0 0 139 123" fill="none" xmlns="http://www.w3.org/2000/svg">
<rect x="59" y="97" width="16.0233" height="16.0233" fill="black"/>
<path d="M79.5701 46.552V40.408C79.5701 38.776 80.3861 37.96 82.0181 37.96H86.5301L87.2501 38.52V39.176H82.0021C81.2768 39.176 80.9141 39.5387 80.9141 40.264V46.696C80.9141 47.4213 81.2768 47.784 82.0021 47.784H87.2501V48.44L86.5301 49H82.0181C80.3861 49 79.5701 48.184 79.5701 46.552ZM89.4957 49V37.96H94.7277C96.3597 37.96 97.1757 38.776 97.1757 40.408V42.168C97.1757 43.5547 96.5837 44.344 95.3997 44.536L97.4957 48.68L97.3197 49H96.1837L93.9597 44.616H90.8397V49H89.4957ZM90.8397 43.4H94.7437C95.4691 43.4 95.8317 43.0373 95.8317 42.312V40.264C95.8317 39.5387 95.4691 39.176 94.7437 39.176H90.8397V43.4ZM98.6101 38.248L98.7861 37.96H99.9221L102.93 43.544L105.938 37.96H107.074L107.25 38.248L103.602 44.904V49H102.258V44.904L98.6101 38.248ZM109.011 49V37.96H114.243C115.875 37.96 116.691 38.776 116.691 40.408V42.488C116.691 44.12 115.875 44.936 114.243 44.936H110.355V49H109.011ZM110.355 43.72H114.259C114.985 43.72 115.347 43.3573 115.347 42.632V40.264C115.347 39.5387 114.985 39.176 114.259 39.176H110.355V43.72ZM118.033 39.176V37.96H126.737V39.176H123.057V49H121.713V39.176H118.033ZM128.398 46.552V40.408C128.398 38.776 129.214 37.96 130.846 37.96H134.59C136.222 37.96 137.038 38.776 137.038 40.408V46.552C137.038 48.184 136.222 49 134.59 49H130.846C129.214 49 128.398 48.184 128.398 46.552ZM129.742 46.696C129.742 47.4213 130.105 47.784 130.83 47.784H134.606C135.332 47.784 135.694 47.4213 135.694 46.696V40.264C135.694 39.5387 135.332 39.176 134.606 39.176H130.83C130.105 39.176 129.742 39.5387 129.742 40.264V46.696ZM70.4539 68.712L74.0699 57.96H76.2779L79.8939 68.712L79.7019 69H78.5979L77.6859 66.216H72.6619L71.7499 69H70.6459L70.4539 68.712ZM73.0619 65H77.2859L75.3659 59.176H74.9819L73.0619 65ZM81.652 69V57.96H86.884C88.516 57.96 89.332 58.776 89.332 60.408V62.168C89.332 63.5547 88.74 64.344 87.556 64.536L89.652 68.68L89.476 69H88.34L86.116 64.616H82.996V69H81.652ZM82.996 63.4H86.9C87.6253 63.4 87.988 63.0373 87.988 62.312V60.264C87.988 59.5387 87.6253 59.176 86.9 59.176H82.996V63.4ZM90.8304 59.176V57.96H99.5344V59.176H95.8544V69H94.5104V59.176H90.8304ZM104.879 66.6V64.904C104.879 64.3493 105.055 63.9227 105.407 63.624L106.079 63.064L105.519 62.392C105.306 62.136 105.199 61.8267 105.199 61.464V60.36C105.199 58.76 105.999 57.96 107.599 57.96H110.639L111.279 58.44V59.08H107.599C106.852 59.08 106.479 59.4533 106.479 60.2V61.48C106.479 62.2267 106.852 62.6 107.599 62.6H113.679V63.72H112.079V69H107.279C105.679 69 104.879 68.2 104.879 66.6ZM106.159 66.76C106.159 67.5067 106.532 67.88 107.279 67.88H110.799V63.72H107.279C106.532 63.72 106.159 64.0933 106.159 64.84V66.76ZM118.485 58.248L118.677 57.96H119.829L122.933 67.784H123.317L126.437 57.96H127.573L127.765 58.248L124.277 69H121.973L118.485 58.248ZM129.527 69V57.96H134.759C136.391 57.96 137.207 58.776 137.207 60.408V62.168C137.207 63.5547 136.615 64.344 135.431 64.536L137.527 68.68L137.351 69H136.215L133.991 64.616H130.871V69H129.527ZM130.871 63.4H134.775C135.5 63.4 135.863 63.0373 135.863 62.312V60.264C135.863 59.5387 135.5 59.176 134.775 59.176H130.871V63.4ZM60.0895 89V77.96H65.3215C66.9535 77.96 67.7695 78.776 67.7695 80.408V82.168C67.7695 83.5547 67.1775 84.344 65.9935 84.536L68.0895 88.68L67.9135 89H66.7775L64.5535 84.616H61.4335V89H60.0895ZM61.4335 83.4H65.3375C66.0628 83.4 66.4255 83.0373 66.4255 82.312V80.264C66.4255 79.5387 66.0628 79.176 65.3375 79.176H61.4335V83.4ZM70.3239 89V77.96H77.5239V79.176H71.6679V82.6H77.0439V83.816H71.6679V87.784H77.5239V89H70.3239ZM79.2814 88.44V87.784H84.2094C84.9347 87.784 85.2974 87.4213 85.2974 86.696V85.4C85.2974 84.792 85.0254 84.4347 84.4814 84.328L81.0414 83.624C79.868 83.3893 79.2814 82.6053 79.2814 81.272V80.408C79.2814 78.776 80.0974 77.96 81.7294 77.96H85.6014L86.3214 78.52V79.176H81.7134C80.988 79.176 80.6254 79.5387 80.6254 80.264V81.352C80.6254 81.96 80.8974 82.3173 81.4414 82.424L84.8814 83.112C86.0547 83.3467 86.6414 84.136 86.6414 85.48V86.552C86.6414 88.184 85.8254 89 84.1934 89H80.0014L79.2814 88.44ZM89.0426 89V77.96H96.2426V79.176H90.3866V82.6H95.7626V83.816H90.3866V87.784H96.2426V89H89.0426ZM97.3601 88.712L100.976 77.96H103.184L106.8 88.712L106.608 89H105.504L104.592 86.216H99.5681L98.6561 89H97.5521L97.3601 88.712ZM99.9681 85H104.192L102.272 79.176H101.888L99.9681 85ZM108.558 89V77.96H113.79C115.422 77.96 116.238 78.776 116.238 80.408V82.168C116.238 83.5547 115.646 84.344 114.462 84.536L116.558 88.68L116.382 89H115.246L113.022 84.616H109.902V89H108.558ZM109.902 83.4H113.806C114.532 83.4 114.894 83.0373 114.894 82.312V80.264C114.894 79.5387 114.532 79.176 113.806 79.176H109.902V83.4ZM118.633 86.552V80.408C118.633 78.776 119.449 77.96 121.081 77.96H125.593L126.313 78.52V79.176H121.065C120.339 79.176 119.977 79.5387 119.977 80.264V86.696C119.977 87.4213 120.339 87.784 121.065 87.784H126.313V88.44L125.593 89H121.081C119.449 89 118.633 88.184 118.633 86.552ZM128.558 89V77.96H129.902V82.6H135.534V77.96H136.878V89H135.534V83.816H129.902V89H128.558ZM82.9957 109V97.96H84.3397V107.784H89.7157V109H82.9957ZM90.4226 108.712L94.0386 97.96H96.2466L99.8626 108.712L99.6706 109H98.5666L97.6546 106.216H92.6306L91.7186 109H90.6146L90.4226 108.712ZM93.0306 105H97.2546L95.3346 99.176H94.9506L93.0306 105ZM101.621 109V97.96H106.693C108.325 97.96 109.141 98.776 109.141 100.408V101.512C109.141 101.875 109.034 102.184 108.821 102.44L108.261 103.112L108.933 103.672C109.285 103.96 109.461 104.387 109.461 104.952V106.552C109.461 108.184 108.645 109 107.013 109H101.621ZM102.965 107.784H107.029C107.754 107.784 108.117 107.421 108.117 106.696V104.904C108.117 104.179 107.754 103.816 107.029 103.816H102.965V107.784ZM102.965 102.6H106.709C107.434 102.6 107.797 102.237 107.797 101.512V100.264C107.797 99.5387 107.434 99.176 106.709 99.176H102.965V102.6ZM111.118 111.08H119.118V112.2H111.118V111.08ZM120.399 111.08H128.399V112.2H120.399V111.08ZM129.68 111.08H137.68V112.2H129.68V111.08Z" fill="black"/>
<path d="M16.1669 3.8162L16.1669 15.473L5.46368e-05 15.473L5.51736e-05 3.19173C5.52537e-05 1.35995 1.94285 -6.21752e-07 3.46933 -5.55027e-07L13.0445 -1.36482e-07C14.6404 -6.67246e-08 16.1669 1.80402 16.1669 3.8162Z" fill="black"/>
<path d="M13.3914 16.8608C14.4322 16.8608 16.1669 17.971 16.1669 19.9138L16.1669 29.3502C16.1669 31.0155 14.7098 32.2644 13.3914 32.2644L3.39994 32.2644C1.6653 32.2644 0.0694383 30.6686 0.0694384 29.3502L0.0694388 20.3995C0.0694389 18.7343 1.73469 16.8608 3.39994 16.8608L13.3914 16.8608Z" fill="black"/>
<path d="M16.1669 46.0025L16.1669 33.6519L0.0694408 33.6519L0.0694403 46.0025L16.1669 46.0025Z" fill="black"/>
<path d="M16.1669 57.7286L16.1669 47.3208L0.138826 47.3208L0.138826 62.7244L5.48151 62.7244L5.48151 57.7286L16.1669 57.7286Z" fill="black"/>
<path d="M12.4894 64.251L0.138826 64.251L0.138826 79.5852L12.4894 79.5852C15.1955 79.5852 16.1669 77.9893 16.1669 76.4628L16.1669 67.7203C16.1669 66.1244 14.6404 64.251 12.4894 64.251Z" fill="black"/>
<path d="M16.1669 93.1153L16.1669 81.3892L0.0694427 81.3892C0.0694426 84.7428 0.138895 91.1864 0.138895 92.3521C0.138894 94.8499 2.04701 95.9205 2.91431 96.1683C4.85711 96.7233 6.66113 96.4458 7.49375 96.307C8.32638 96.1683 10.7548 94.9193 10.7548 92.9071C10.7548 94.9193 12.6977 95.405 13.3915 95.405C15.1956 95.405 16.1669 94.2949 16.1669 93.1153Z" fill="black"/>
<path d="M16.1669 102.205L16.1669 113.098L10.963 113.098L10.963 109.49C10.963 110.184 9.64464 113.445 5.55089 113.445C3.05302 113.445 0.0694402 112.127 0.0694403 109.837L0.0694408 97.9028L5.55089 97.9028L5.55089 101.372C5.55089 99.8456 6.86922 97.9028 10.8242 97.9028C14.7792 97.9028 16.1669 100.054 16.1669 102.205Z" fill="black"/>
</svg>
